<svg width="474" height="407" viewBox="0 0 474 407" fill="none" xmlns="http://www.w3.org/2000/svg">
<path d="M472.852 379.774C471.304 395.114 457.512 406.25 442.099 406.25H30.5C13.2425 406.25 -0.622546 391.279 1.14745 373.726C2.6962 358.386 16.4875 347.25 31.9012 347.25H45.25C49.3062 347.25 52.9937 345.628 55.6487 342.899C58.6725 339.949 60.3687 335.745 59.9262 331.172C59.2625 323.429 52.1825 317.75 44.4387 317.75H31.4587C20.765 317.75 10.8825 310.596 8.81745 300.05C6.01495 285.964 16.8562 273.5 30.5 273.5H163.25V192.375H30.5C13.2425 192.375 -0.622546 177.404 1.14745 159.851C2.6962 144.511 16.4875 133.375 31.9012 133.375H40.825C53.1412 133.375 64.3512 125.041 66.785 112.946C70.2512 96.4262 57.5662 81.75 41.5625 81.75H37.875C20.6175 81.75 6.75245 66.7787 8.52245 49.2262C10.0712 33.8862 23.8625 22.75 39.2762 22.75H439.812C450.654 22.75 459.209 31.9688 458.176 43.0312C457.291 52.6188 448.441 59.625 438.78 59.625H428.75C424.694 59.625 421.006 61.2475 418.351 63.9762C415.622 66.6313 414 70.3187 414 74.375C414 82.4875 420.637 89.125 428.75 89.125H442.099C457.512 89.125 471.304 100.261 472.852 115.601C474.622 133.154 460.684 148.125 443.5 148.125H340.25L332.875 244H438.854C451.17 244 462.454 252.26 465.035 264.281C468.575 280.801 455.816 295.625 439.812 295.625H432.437C425.357 295.625 418.867 298.501 414.221 303.221C411.05 306.319 408.764 310.228 407.584 314.579C406.92 316.791 406.625 319.078 406.625 321.438C406.625 330.509 411.271 338.4 418.351 342.899C418.425 343.046 418.572 343.12 418.72 343.194C421.301 345.775 424.841 347.25 428.75 347.25H443.5C460.684 347.25 474.622 362.221 472.852 379.774Z" fill="url(#paint0_radial_112_1690)"/>
<path d="M384.5 0.625H237V384.125H384.5V0.625Z" fill="url(#paint1_linear_112_1690)"/>
<path d="M237 0.625H89.5V384.125H237V0.625Z" fill="url(#paint2_linear_112_1690)"/>
<path d="M332.875 177.625H362.375C366.446 177.625 369.75 174.321 369.75 170.25V155.5C369.75 151.429 366.446 148.125 362.375 148.125H332.875C328.804 148.125 325.5 151.429 325.5 155.5V170.25C325.5 174.321 328.804 177.625 332.875 177.625Z" fill="url(#paint3_linear_112_1690)"/>
<path d="M266.5 177.625H296C300.071 177.625 303.375 174.321 303.375 170.25V155.5C303.375 151.429 300.071 148.125 296 148.125H266.5C262.429 148.125 259.125 151.429 259.125 155.5V170.25C259.125 174.321 262.429 177.625 266.5 177.625Z" fill="url(#paint4_linear_112_1690)"/>
<path d="M332.875 244H362.375C366.446 244 369.75 240.696 369.75 236.625V221.875C369.75 217.804 366.446 214.5 362.375 214.5H332.875C328.804 214.5 325.5 217.804 325.5 221.875V236.625C325.5 240.696 328.804 244 332.875 244Z" fill="url(#paint5_linear_112_1690)"/>
<path d="M266.5 244H296C300.071 244 303.375 240.696 303.375 236.625V221.875C303.375 217.804 300.071 214.5 296 214.5H266.5C262.429 214.5 259.125 217.804 259.125 221.875V236.625C259.125 240.696 262.429 244 266.5 244Z" fill="url(#paint6_linear_112_1690)"/>
<path d="M332.875 310.375H362.375C366.446 310.375 369.75 307.071 369.75 303V288.25C369.75 284.179 366.446 280.875 362.375 280.875H332.875C328.804 280.875 325.5 284.179 325.5 288.25V303C325.5 307.071 328.804 310.375 332.875 310.375Z" fill="url(#paint7_linear_112_1690)"/>
<path d="M266.5 310.375H296C300.071 310.375 303.375 307.071 303.375 303V288.25C303.375 284.179 300.071 280.875 296 280.875H266.5C262.429 280.875 259.125 284.179 259.125 288.25V303C259.125 307.071 262.429 310.375 266.5 310.375Z" fill="url(#paint8_linear_112_1690)"/>
<path d="M332.875 111.25H362.375C366.446 111.25 369.75 107.946 369.75 103.875V89.125C369.75 85.054 366.446 81.75 362.375 81.75H332.875C328.804 81.75 325.5 85.054 325.5 89.125V103.875C325.5 107.946 328.804 111.25 332.875 111.25Z" fill="url(#paint9_linear_112_1690)"/>
<path d="M266.5 111.25H296C300.071 111.25 303.375 107.946 303.375 103.875V89.125C303.375 85.054 300.071 81.75 296 81.75H266.5C262.429 81.75 259.125 85.054 259.125 89.125V103.875C259.125 107.946 262.429 111.25 266.5 111.25Z" fill="url(#paint10_linear_112_1690)"/>
<path d="M178 177.625H207.5C211.571 177.625 214.875 174.321 214.875 170.25V155.5C214.875 151.429 211.571 148.125 207.5 148.125H178C173.929 148.125 170.625 151.429 170.625 155.5V170.25C170.625 174.321 173.929 177.625 178 177.625Z" fill="url(#paint11_linear_112_1690)"/>
<path d="M111.625 177.625H141.125C145.196 177.625 148.5 174.321 148.5 170.25V155.5C148.5 151.429 145.196 148.125 141.125 148.125H111.625C107.554 148.125 104.25 151.429 104.25 155.5V170.25C104.25 174.321 107.554 177.625 111.625 177.625Z" fill="url(#paint12_linear_112_1690)"/>
<path d="M178 244H207.5C211.571 244 214.875 240.696 214.875 236.625V221.875C214.875 217.804 211.571 214.5 207.5 214.5H178C173.929 214.5 170.625 217.804 170.625 221.875V236.625C170.625 240.696 173.929 244 178 244Z" fill="url(#paint13_linear_112_1690)"/>
<path d="M111.625 244H141.125C145.196 244 148.5 240.696 148.5 236.625V221.875C148.5 217.804 145.196 214.5 141.125 214.5H111.625C107.554 214.5 104.25 217.804 104.25 221.875V236.625C104.25 240.696 107.554 244 111.625 244Z" fill="url(#paint14_linear_112_1690)"/>
<path d="M178 310.375H207.5C211.571 310.375 214.875 307.071 214.875 303V288.25C214.875 284.179 211.571 280.875 207.5 280.875H178C173.929 280.875 170.625 284.179 170.625 288.25V303C170.625 307.071 173.929 310.375 178 310.375Z" fill="url(#paint15_linear_112_1690)"/>
<path d="M111.625 310.375H141.125C145.196 310.375 148.5 307.071 148.5 303V288.25C148.5 284.179 145.196 280.875 141.125 280.875H111.625C107.554 280.875 104.25 284.179 104.25 288.25V303C104.25 307.071 107.554 310.375 111.625 310.375Z" fill="url(#paint16_linear_112_1690)"/>
<path d="M178 111.25H207.5C211.571 111.25 214.875 107.946 214.875 103.875V89.125C214.875 85.054 211.571 81.75 207.5 81.75H178C173.929 81.75 170.625 85.054 170.625 89.125V103.875C170.625 107.946 173.929 111.25 178 111.25Z" fill="url(#paint17_linear_112_1690)"/>
<path d="M111.625 111.25H141.125C145.196 111.25 148.5 107.946 148.5 103.875V89.125C148.5 85.054 145.196 81.75 141.125 81.75H111.625C107.554 81.75 104.25 85.054 104.25 89.125V103.875C104.25 107.946 107.554 111.25 111.625 111.25Z" fill="url(#paint18_linear_112_1690)"/>
<path d="M414 22.75C414 34.9925 404.117 44.875 391.875 44.875H237V0.625H391.875C397.996 0.625 403.527 3.1325 407.51 7.115C411.492 11.0975 414 16.6287 414 22.75Z" fill="url(#paint19_linear_112_1690)"/>
<path d="M259.125 22.75C259.125 34.9925 249.242 44.875 237 44.875H89.5C83.3787 44.875 77.8475 42.3675 73.865 38.385C69.8825 34.4025 67.375 28.8713 67.375 22.75C67.375 10.5075 77.2575 0.625 89.5 0.625H237C243.121 0.625 248.652 3.1325 252.635 7.115C256.617 11.0975 259.125 16.6287 259.125 22.75Z" fill="url(#paint20_linear_112_1690)"/>
<defs>
<radialGradient id="paint0_radial_112_1690" cx="0" cy="0" r="1" gradientUnits="userSpaceOnUse" gradientTransform="translate(237 203.438) scale(215.018 227.423)">
<stop stop-color="#C5F1FF"/>
<stop offset="0.35" stop-color="#CDF3FF"/>
<stop offset="0.907" stop-color="#E4FAFF"/>
<stop offset="1" stop-color="#E9FBFF"/>
</radialGradient>
<linearGradient id="paint1_linear_112_1690" x1="237" y1="571.386" x2="237" y2="-11.2395" gradientUnits="userSpaceOnUse">
<stop stop-color="#3280E5"/>
<stop offset="0.076" stop-color="#3487E6"/>
<stop offset="0.449" stop-color="#3CA4ED"/>
<stop offset="0.77" stop-color="#41B7F1"/>
<stop offset="1" stop-color="#43BDF2"/>
</linearGradient>
<linearGradient id="paint2_linear_112_1690" x1="237" y1="411.398" x2="237" y2="26.9204" gradientUnits="userSpaceOnUse">
<stop stop-color="#3CB5EA"/>
<stop offset="1" stop-color="#7DDEFB"/>
</linearGradient>
<linearGradient id="paint3_linear_112_1690" x1="237" y1="0.625" x2="237" y2="406.25" gradientUnits="userSpaceOnUse">
<stop stop-color="#E3ECEF"/>
<stop offset="0.989" stop-color="#E6F0F3"/>
</linearGradient>
<linearGradient id="paint4_linear_112_1690" x1="237" y1="0.625" x2="237" y2="406.25" gradientUnits="userSpaceOnUse">
<stop stop-color="#E3ECEF"/>
<stop offset="0.989" stop-color="#E6F0F3"/>
</linearGradient>
<linearGradient id="paint5_linear_112_1690" x1="237" y1="0.625" x2="237" y2="406.25" gradientUnits="userSpaceOnUse">
<stop stop-color="#E3ECEF"/>
<stop offset="0.989" stop-color="#E6F0F3"/>
</linearGradient>
<linearGradient id="paint6_linear_112_1690" x1="237" y1="0.625" x2="237" y2="406.25" gradientUnits="userSpaceOnUse">
<stop stop-color="#E3ECEF"/>
<stop offset="0.989" stop-color="#E6F0F3"/>
</linearGradient>
<linearGradient id="paint7_linear_112_1690" x1="237" y1="0.625" x2="237" y2="406.25" gradientUnits="userSpaceOnUse">
<stop stop-color="#E3ECEF"/>
<stop offset="0.989" stop-color="#E6F0F3"/>
</linearGradient>
<linearGradient id="paint8_linear_112_1690" x1="237" y1="0.625" x2="237" y2="406.25" gradientUnits="userSpaceOnUse">
<stop stop-color="#E3ECEF"/>
<stop offset="0.989" stop-color="#E6F0F3"/>
</linearGradient>
<linearGradient id="paint9_linear_112_1690" x1="237" y1="0.625" x2="237" y2="406.25" gradientUnits="userSpaceOnUse">
<stop stop-color="#E3ECEF"/>
<stop offset="0.989" stop-color="#E6F0F3"/>
</linearGradient>
<linearGradient id="paint10_linear_112_1690" x1="237" y1="0.625" x2="237" y2="406.25" gradientUnits="userSpaceOnUse">
<stop stop-color="#E3ECEF"/>
<stop offset="0.989" stop-color="#E6F0F3"/>
</linearGradient>
<linearGradient id="paint11_linear_112_1690" x1="237" y1="0.625" x2="237" y2="406.25" gradientUnits="userSpaceOnUse">
<stop stop-color="#E3ECEF"/>
<stop offset="0.989" stop-color="#E6F0F3"/>
</linearGradient>
<linearGradient id="paint12_linear_112_1690" x1="237" y1="0.625" x2="237" y2="406.25" gradientUnits="userSpaceOnUse">
<stop stop-color="#E3ECEF"/>
<stop offset="0.989" stop-color="#E6F0F3"/>
</linearGradient>
<linearGradient id="paint13_linear_112_1690" x1="237" y1="0.625" x2="237" y2="406.25" gradientUnits="userSpaceOnUse">
<stop stop-color="#E3ECEF"/>
<stop offset="0.989" stop-color="#E6F0F3"/>
</linearGradient>
<linearGradient id="paint14_linear_112_1690" x1="237" y1="0.625" x2="237" y2="406.25" gradientUnits="userSpaceOnUse">
<stop stop-color="#E3ECEF"/>
<stop offset="0.989" stop-color="#E6F0F3"/>
</linearGradient>
<linearGradient id="paint15_linear_112_1690" x1="237" y1="0.625" x2="237" y2="406.25" gradientUnits="userSpaceOnUse">
<stop stop-color="#E3ECEF"/>
<stop offset="0.989" stop-color="#E6F0F3"/>
</linearGradient>
<linearGradient id="paint16_linear_112_1690" x1="237" y1="0.625" x2="237" y2="406.25" gradientUnits="userSpaceOnUse">
<stop stop-color="#E3ECEF"/>
<stop offset="0.989" stop-color="#E6F0F3"/>
</linearGradient>
<linearGradient id="paint17_linear_112_1690" x1="237" y1="0.625" x2="237" y2="406.25" gradientUnits="userSpaceOnUse">
<stop stop-color="#E3ECEF"/>
<stop offset="0.989" stop-color="#E6F0F3"/>
</linearGradient>
<linearGradient id="paint18_linear_112_1690" x1="237" y1="0.625" x2="237" y2="406.25" gradientUnits="userSpaceOnUse">
<stop stop-color="#E3ECEF"/>
<stop offset="0.989" stop-color="#E6F0F3"/>
</linearGradient>
<linearGradient id="paint19_linear_112_1690" x1="237" y1="442.215" x2="237" y2="-139.18" gradientUnits="userSpaceOnUse">
<stop stop-color="#FF8B67"/>
<stop offset="0.847" stop-color="#FFA76A"/>
<stop offset="1" stop-color="#FFAD6B"/>
</linearGradient>
<linearGradient id="paint20_linear_112_1690" x1="163.25" y1="413.706" x2="163.25" y2="-184.34" gradientUnits="userSpaceOnUse">
<stop stop-color="#FF9757"/>
<stop offset="1" stop-color="#FFB65B"/>
</linearGradient>
</defs>
</svg>
